<?xml version="1.0" standalone="no"?>
<!DOCTYPE svg PUBLIC "-//W3C//DTD SVG 20010904//EN"
 "http://www.w3.org/TR/2001/REC-SVG-20010904/DTD/svg10.dtd">
<svg version="1.0" xmlns="http://www.w3.org/2000/svg"
 width="57.000000pt" height="55.000000pt" viewBox="0 0 57.000000 55.000000"
 preserveAspectRatio="xMidYMid meet">
<metadata>
Created by potrace 1.14, written by Peter Selinger 2001-2017
</metadata>
<g transform="translate(0.000000,55.000000) scale(0.100000,-0.100000)"
fill="#FF0000" stroke="none">
<path d="M488 529 c-10 -5 -18 -6 -18 -2 0 4 -4 3 -8 -2 -4 -6 -26 -23 -50
-39 -23 -16 -70 -58 -102 -93 -59 -63 -76 -72 -43 -23 30 46 78 92 116 111 40
21 49 39 19 39 -68 0 -202 -170 -202 -256 0 -8 -9 -33 -20 -55 -19 -37 -20
-59 -1 -59 5 0 14 13 21 30 12 29 64 61 123 76 17 4 29 15 33 30 3 13 15 24
27 26 15 2 34 26 62 76 22 39 52 86 68 103 15 17 27 35 27 40 0 12 -31 11 -52
-2z m-65 -118 c-29 -54 -44 -71 -63 -73 -16 -2 -26 -11 -30 -27 -4 -17 -17
-28 -43 -37 -20 -7 -37 -11 -37 -8 0 31 177 214 207 214 2 0 -14 -31 -34 -69z
M72 498 c-9 -9 -12 -76 -12 -240 0 -214 1 -228 19 -238 26 -13 326 -13 352 0
17 10 19 23 19 150 0 117 -2 140 -15 140 -12 0 -15 -24 -17 -132 l-3 -133
-160 0 -160 0 -3 217 -2 217 96 3 c67 2 99 7 102 16 5 17 -199 17 -216 0z"/>
</g>
</svg>
