<svg id="SvgjsSvg1011" width="288" height="288" xmlns="http://www.w3.org/2000/svg" version="1.1" xmlnsXlink="http://www.w3.org/1999/xlink" xmlnsSvgjs="http://svgjs.com/svgjs"><defs id="SvgjsDefs1012"></defs><g id="SvgjsG1013"><svg xmlns="http://www.w3.org/2000/svg" data-name="Layer 1" viewBox="0 0 24 24" width="288" height="288"><path d="M17,11H9.41l3.3-3.29a1,1,0,1,0-1.42-1.42l-5,5a1,1,0,0,0-.21.33,1,1,0,0,0,0,.76,1,1,0,0,0,.21.33l5,5a1,1,0,0,0,1.42,0,1,1,0,0,0,0-1.42L9.41,13H17a1,1,0,0,0,0-2Z" fill="#ff0000" class="color000 svgShape"></path></svg></g></svg>